<?xml version="1.0" encoding="UTF-8"?>
<svg  version="1.1" viewBox="0 0 700 700" xmlns="http://www.w3.org/2000/svg" xmlns:xlink="http://www.w3.org/1999/xlink">
 <g>
  <path fill="#EFE0CB" d="m210 162.4h280c6.1836 0 11.199-5.0195 11.199-11.199 0-6.1836-5.0195-11.199-11.199-11.199h-280c-6.1836 0-11.199 5.0195-11.199 11.199 0 6.1836 5.0156 11.199 11.199 11.199z"/>
  <path fill="#EFE0CB" d="m210 420h280c6.1836 0 11.199-5.0195 11.199-11.199 0-6.1836-5.0195-11.199-11.199-11.199h-280c-6.1836 0-11.199 5.0195-11.199 11.199 0 6.1797 5.0156 11.199 11.199 11.199z"/>
  <path fill="#EFE0CB" d="m210 291.2h280c6.1836 0 11.199-5.0195 11.199-11.199 0-6.1836-5.0195-11.199-11.199-11.199h-280c-6.1836 0-11.199 5.0195-11.199 11.199 0 6.1836 5.0156 11.199 11.199 11.199z"/>
 </g>
</svg>
